<svg version="1.1" xmlns="http://www.w3.org/2000/svg" viewBox="0 0 666.8085394534196 306.0706346232404" width="1333.6170789068392" height="612.1412692464808">
  <!-- svg-source:excalidraw -->
  
  <defs>
    <style class="style-fonts">
      @font-face {
        font-family: "Virgil";
        src: url("https://excalidraw.com/Virgil.woff2");
      }
      @font-face {
        font-family: "Cascadia";
        src: url("https://excalidraw.com/Cascadia.woff2");
      }
    </style>
    
  </defs>
  <g stroke-linecap="round" transform="translate(217.82174931087695 10) rotate(0 115.58252041583279 22)"><path d="M0 0 C53.48 0, 106.97 0, 231.17 0 M0 0 C48.11 0, 96.21 0, 231.17 0 M231.17 0 C231.17 13.52, 231.17 27.04, 231.17 44 M231.17 0 C231.17 15.89, 231.17 31.78, 231.17 44 M231.17 44 C157.54 44, 83.92 44, 0 44 M231.17 44 C176.71 44, 122.26 44, 0 44 M0 44 C0 26.94, 0 9.87, 0 0 M0 44 C0 28.14, 0 12.29, 0 0" stroke="#1971c2" stroke-width="4" fill="none"></path></g><g transform="translate(239.6542697267098 20) rotate(0 93.75 12)"><text x="93.75" y="0" font-family="Cascadia, Segoe UI Emoji" font-size="20px" fill="#1971c2" text-anchor="middle" style="white-space: pre;" direction="ltr" dominant-baseline="text-before-edge">build.gradle.kts</text></g><g stroke-linecap="round" transform="translate(260.19802511812895 87.38700708996203) rotate(0 79.89546457879044 17)"><path d="M0 0 C61.63 0, 123.26 0, 159.79 0 M0 0 C55.49 0, 110.97 0, 159.79 0 M159.79 0 C159.79 7.21, 159.79 14.42, 159.79 34 M159.79 0 C159.79 12.47, 159.79 24.94, 159.79 34 M159.79 34 C101.78 34, 43.76 34, 0 34 M159.79 34 C115.49 34, 71.2 34, 0 34 M0 34 C0 23.96, 0 13.91, 0 0 M0 34 C0 25.65, 0 17.3, 0 0" stroke="#1971c2" stroke-width="2" fill="none"></path></g><g transform="translate(299.0778646969194 92.38700708996203) rotate(0 41.015625 12)"><text x="41.015625" y="0" font-family="Cascadia, Segoe UI Emoji" font-size="20px" fill="#1971c2" text-anchor="middle" style="white-space: pre;" direction="ltr" dominant-baseline="text-before-edge">Plugins</text></g><g stroke-linecap="round" transform="translate(497.0176102958387 88.95396674570404) rotate(0 79.89546457879044 17)"><path d="M0 0 C37.3 0, 74.61 0, 159.79 0 M0 0 C45.68 0, 91.35 0, 159.79 0 M159.79 0 C159.79 11.33, 159.79 22.67, 159.79 34 M159.79 0 C159.79 10.83, 159.79 21.66, 159.79 34 M159.79 34 C100.37 34, 40.95 34, 0 34 M159.79 34 C100.06 34, 40.34 34, 0 34 M0 34 C0 25.54, 0 17.07, 0 0 M0 34 C0 21.88, 0 9.76, 0 0" stroke="#1971c2" stroke-width="2" fill="none"></path></g><g transform="translate(506.6005748746293 93.95396674570404) rotate(0 70.3125 12)"><text x="70.3125" y="0" font-family="Cascadia, Segoe UI Emoji" font-size="20px" fill="#1971c2" text-anchor="middle" style="white-space: pre;" direction="ltr" dominant-baseline="text-before-edge">Dependencies</text></g><g stroke-linecap="round" transform="translate(10 86.60870199759745) rotate(0 79.89546457879044 17)"><path d="M0 0 C60.33 0, 120.66 0, 159.79 0 M0 0 C41.83 0, 83.65 0, 159.79 0 M159.79 0 C159.79 13.12, 159.79 26.23, 159.79 34 M159.79 0 C159.79 11.13, 159.79 22.26, 159.79 34 M159.79 34 C119.29 34, 78.78 34, 0 34 M159.79 34 C109.01 34, 58.23 34, 0 34 M0 34 C0 20.41, 0 6.82, 0 0 M0 34 C0 25.92, 0 17.84, 0 0" stroke="#1971c2" stroke-width="2" fill="none"></path></g><g transform="translate(19.58296457879044 91.60870199759745) rotate(0 70.3125 12)"><text x="70.3125" y="0" font-family="Cascadia, Segoe UI Emoji" font-size="20px" fill="#1971c2" text-anchor="middle" style="white-space: pre;" direction="ltr" dominant-baseline="text-before-edge">Repositories</text></g><g stroke-linecap="round" transform="translate(260.84238408407214 158.07702803745968) rotate(0 79.89546457879044 17)"><path d="M0 0 C44.75 0, 89.5 0, 159.79 0 M0 0 C53.17 0, 106.34 0, 159.79 0 M159.79 0 C159.79 8.89, 159.79 17.78, 159.79 34 M159.79 0 C159.79 7.33, 159.79 14.65, 159.79 34 M159.79 34 C127.39 34, 95 34, 0 34 M159.79 34 C111.67 34, 63.56 34, 0 34 M0 34 C0 26.02, 0 18.03, 0 0 M0 34 C0 25.67, 0 17.34, 0 0" stroke="#1971c2" stroke-width="1" fill="none"></path></g><g transform="translate(311.4409736628626 163.07702803745968) rotate(0 29.296875 12)"><text x="29.296875" y="0" font-family="Cascadia, Segoe UI Emoji" font-size="20px" fill="#1971c2" text-anchor="middle" style="white-space: pre;" direction="ltr" dominant-baseline="text-before-edge">Tasks</text></g><g stroke-linecap="round"><g transform="translate(339.58035788330903 122.51550632989432) rotate(0 0 18.13794781157617)"><path d="M0 0 C0 12.04, 0 24.09, 0 36.28 M0 0 C0 7.26, 0 14.52, 0 36.28" stroke="#1971c2" stroke-width="1" fill="none"></path></g><g transform="translate(339.58035788330903 122.51550632989432) rotate(0 0 18.13794781157617)"><path d="M-6.2 19.23 C-4.14 24.89, -2.08 30.55, 0 36.28 M-6.2 19.23 C-4.96 22.64, -3.72 26.06, 0 36.28" stroke="#1971c2" stroke-width="1" fill="none"></path></g><g transform="translate(339.58035788330903 122.51550632989432) rotate(0 0 18.13794781157617)"><path d="M6.2 19.23 C4.14 24.89, 2.08 30.55, 0 36.28 M6.2 19.23 C4.96 22.64, 3.72 26.06, 0 36.28" stroke="#1971c2" stroke-width="1" fill="none"></path></g></g><mask></mask><g stroke-linecap="round"><g transform="translate(580.8431598470661 123.17500689033756) rotate(0 -81.3877528367318 12.957634223922218)"><path d="M0 0 C-15.88 4.62, -68.14 28.05, -95.27 27.74 C-122.4 27.44, -151.52 3.1, -162.78 -1.83 M0 0 C-15.88 4.62, -68.14 28.05, -95.27 27.74 C-122.4 27.44, -151.52 3.1, -162.78 -1.83" stroke="#1971c2" stroke-width="1" fill="none"></path></g></g><mask></mask><g stroke-linecap="round"><g transform="translate(79.7909738491428 120.42933108767613) rotate(0 90.76208223160285 15.404385242694858)"><path d="M0 0 C17.31 5.13, 73.62 30.66, 103.87 30.81 C134.13 30.96, 168.58 5.89, 181.52 0.9 M0 0 C17.31 5.13, 73.62 30.66, 103.87 30.81 C134.13 30.96, 168.58 5.89, 181.52 0.9" stroke="#1971c2" stroke-width="1" fill="none"></path></g></g><mask></mask><g stroke-linecap="round"><g transform="translate(215.9408267941027 31.978865616402118) rotate(0 -67.41374351264784 27.103454154947784)"><path d="M0 0 C-14.72 1.17, -65.84 -2.04, -88.31 7 C-110.78 16.03, -127.07 46.34, -134.83 54.21 M0 0 C-14.72 1.17, -65.84 -2.04, -88.31 7 C-110.78 16.03, -127.07 46.34, -134.83 54.21" stroke="#1971c2" stroke-width="1" fill="none"></path></g><g transform="translate(215.9408267941027 31.978865616402118) rotate(0 -67.41374351264784 27.103454154947784)"><path d="M-125.74 25.62 C-128.19 33.33, -130.64 41.04, -134.83 54.21 M-125.74 25.62 C-127.93 32.51, -130.12 39.4, -134.83 54.21" stroke="#1971c2" stroke-width="1" fill="none"></path></g><g transform="translate(215.9408267941027 31.978865616402118) rotate(0 -67.41374351264784 27.103454154947784)"><path d="M-109.49 38.14 C-116.33 42.48, -123.16 46.81, -134.83 54.21 M-109.49 38.14 C-115.6 42.02, -121.71 45.89, -134.83 54.21" stroke="#1971c2" stroke-width="1" fill="none"></path></g></g><mask></mask><g stroke-linecap="round"><g transform="translate(451.42626925642685 32.998399646066815) rotate(0 66.85350451614886 27.505547608891447)"><path d="M0 0 C14.76 1.35, 66.28 -1.05, 88.57 8.12 C110.85 17.29, 126.18 47.2, 133.71 55.01 M0 0 C14.76 1.35, 66.28 -1.05, 88.57 8.12 C110.85 17.29, 126.18 47.2, 133.71 55.01" stroke="#1971c2" stroke-width="1" fill="none"></path></g><g transform="translate(451.42626925642685 32.998399646066815) rotate(0 66.85350451614886 27.505547608891447)"><path d="M108.61 38.58 C116.16 43.52, 123.71 48.47, 133.71 55.01 M108.61 38.58 C117.12 44.15, 125.63 49.73, 133.71 55.01" stroke="#1971c2" stroke-width="1" fill="none"></path></g><g transform="translate(451.42626925642685 32.998399646066815) rotate(0 66.85350451614886 27.505547608891447)"><path d="M125.04 26.29 C127.65 34.93, 130.26 43.57, 133.71 55.01 M125.04 26.29 C127.98 36.03, 130.92 45.77, 133.71 55.01" stroke="#1971c2" stroke-width="1" fill="none"></path></g></g><mask></mask><g stroke-linecap="round"><g transform="translate(338.2721059217579 53.5034833978051) rotate(0 -0.39199905761040554 17.20589855013354)"><path d="M0 0 C-0.13 5.74, -0.65 28.68, -0.78 34.41 M0 0 C-0.13 5.74, -0.65 28.68, -0.78 34.41" stroke="#1971c2" stroke-width="1" fill="none"></path></g><g transform="translate(338.2721059217579 53.5034833978051) rotate(0 -0.39199905761040554 17.20589855013354)"><path d="M-6.3 18.11 C-4.49 23.46, -2.68 28.81, -0.78 34.41 M-6.3 18.11 C-4.79 22.58, -3.27 27.05, -0.78 34.41" stroke="#1971c2" stroke-width="1" fill="none"></path></g><g transform="translate(338.2721059217579 53.5034833978051) rotate(0 -0.39199905761040554 17.20589855013354)"><path d="M5.47 18.38 C3.42 23.64, 1.36 28.9, -0.78 34.41 M5.47 18.38 C3.75 22.78, 2.04 27.17, -0.78 34.41" stroke="#1971c2" stroke-width="1" fill="none"></path></g></g><mask></mask><g stroke-linecap="round"><g transform="translate(585.9711131843897 122.03770490345079) rotate(0 -81.57281676950947 65.12370782726462)"><path d="M0 0 C-5.07 21.45, -3.23 116.9, -30.42 128.71 C-57.62 140.53, -141.03 80.52, -163.15 70.88 M0 0 C-5.07 21.45, -3.23 116.9, -30.42 128.71 C-57.62 140.53, -141.03 80.52, -163.15 70.88" stroke="#1971c2" stroke-width="1" fill="none"></path></g><g transform="translate(585.9711131843897 122.03770490345079) rotate(0 -81.57281676950947 65.12370782726462)"><path d="M-133.57 75.93 C-144.12 74.13, -154.67 72.33, -163.15 70.88 M-133.57 75.93 C-140.67 74.72, -147.77 73.51, -163.15 70.88" stroke="#1971c2" stroke-width="1" fill="none"></path></g><g transform="translate(585.9711131843897 122.03770490345079) rotate(0 -81.57281676950947 65.12370782726462)"><path d="M-143.74 93.76 C-150.66 85.6, -157.58 77.44, -163.15 70.88 M-143.74 93.76 C-148.4 88.27, -153.06 82.77, -163.15 70.88" stroke="#1971c2" stroke-width="1" fill="none"></path></g></g><mask></mask><g stroke-linecap="round"><g transform="translate(62.67087766784255 120.23753755734316) rotate(0 284.161295926411 87.91654853294861)"><path d="M0 0 C34.89 27.91, 120.75 144.84, 209.35 167.43 C297.95 190.03, 472.36 162.84, 531.6 135.56 C590.83 108.28, 559.23 25.74, 564.76 3.77 M0 0 C34.89 27.91, 120.75 144.84, 209.35 167.43 C297.95 190.03, 472.36 162.84, 531.6 135.56 C590.83 108.28, 559.23 25.74, 564.76 3.77" stroke="#1971c2" stroke-width="1" fill="none"></path></g></g><mask></mask></svg>