<svg version="1.1" xmlns="http://www.w3.org/2000/svg" viewBox="0 0 564.0575688614309 118.75872190198137" width="1128.1151377228618" height="237.51744380396275">
  <!-- svg-source:excalidraw -->
  
  <defs>
    <style class="style-fonts">
      @font-face {
        font-family: "Virgil";
        src: url("https://excalidraw.com/Virgil.woff2");
      }
      @font-face {
        font-family: "Cascadia";
        src: url("https://excalidraw.com/Cascadia.woff2");
      }
    </style>
    
  </defs>
  <g stroke-linecap="round" transform="translate(10 10) rotate(0 115.58252041583279 26.599999999999994)"><path d="M0 0 C53.48 0, 106.97 0, 231.17 0 M0 0 C48.11 0, 96.21 0, 231.17 0 M231.17 0 C231.17 16.35, 231.17 32.7, 231.17 53.2 M231.17 0 C231.17 19.21, 231.17 38.43, 231.17 53.2 M231.17 53.2 C157.54 53.2, 83.92 53.2, 0 53.2 M231.17 53.2 C176.71 53.2, 122.26 53.2, 0 53.2 M0 53.2 C0 32.57, 0 11.94, 0 0 M0 53.2 C0 34.03, 0 14.86, 0 0" stroke="#1971c2" stroke-width="2" fill="none"></path></g><g transform="translate(100.97314541583285 19.799999999999997) rotate(0 24.609375 16.800000000000004)"><text x="24.609375" y="0" font-family="Cascadia, Segoe UI Emoji" font-size="28px" fill="#1971c2" text-anchor="middle" style="white-space: pre;" direction="ltr" dominant-baseline="text-before-edge">foo</text></g><g stroke-linecap="round" transform="translate(57.046618111441944 74.75872190198137) rotate(0 92.5 17)"><path d="M0 0 C47.09 0, 94.18 0, 185 0 M0 0 C65.38 0, 130.75 0, 185 0 M185 0 C185 7.01, 185 14.01, 185 34 M185 0 C185 6.83, 185 13.66, 185 34 M185 34 C129.75 34, 74.5 34, 0 34 M185 34 C124.83 34, 64.66 34, 0 34 M0 34 C0 21.21, 0 8.41, 0 0 M0 34 C0 22.21, 0 10.41, 0 0" stroke="#1971c2" stroke-width="1" fill="none"></path></g><g transform="translate(74.54661811144194 82.15872190198138) rotate(0 75 9.599999999999994)"><text x="75" y="0" font-family="Cascadia, Segoe UI Emoji" font-size="16px" fill="#1971c2" text-anchor="middle" style="white-space: pre;" direction="ltr" dominant-baseline="text-before-edge">build.gradle.kts</text></g><g stroke-linecap="round"><g transform="translate(193.08610373571867 74.26429185665393) rotate(0 -0.003364798777795386 -5.67978033687794)"><path d="M0 0 C0 -2.85, 0 -5.7, -0.01 -11.36 M0 0 C0 -3.86, 0 -7.71, -0.01 -11.36" stroke="#1971c2" stroke-width="1" fill="none"></path></g></g><mask></mask><g stroke-linecap="round"><g transform="translate(264.41580038606537 37.59598043822032) rotate(0 51.62442524795597 -0.9959804382203288)"><path d="M0 0 C40.55 -0.78, 81.1 -1.56, 103.25 -1.99 M0 0 C33.63 -0.65, 67.26 -1.3, 103.25 -1.99" stroke="#228be6" stroke-width="1" fill="none"></path></g><g transform="translate(264.41580038606537 37.59598043822032) rotate(0 51.62442524795597 -0.9959804382203288)"><path d="M75.26 8.81 C86.25 4.57, 97.24 0.33, 103.25 -1.99 M75.26 8.81 C84.38 5.29, 93.49 1.77, 103.25 -1.99" stroke="#228be6" stroke-width="1" fill="none"></path></g><g transform="translate(264.41580038606537 37.59598043822032) rotate(0 51.62442524795597 -0.9959804382203288)"><path d="M74.87 -11.71 C86.01 -7.89, 97.16 -4.08, 103.25 -1.99 M74.87 -11.71 C84.11 -8.54, 93.36 -5.38, 103.25 -1.99" stroke="#228be6" stroke-width="1" fill="none"></path></g></g><mask></mask><g transform="translate(391.1442167532656 24.599999999999994) rotate(0 64.453125 12)"><text x="0" y="0" font-family="Cascadia, Segoe UI Emoji" font-size="20px" fill="#228be6" text-anchor="start" style="white-space: pre;" direction="ltr" dominant-baseline="text-before-edge">Folder name</text></g><g stroke-linecap="round"><g transform="translate(267.546341236991 91.81171748273135) rotate(0 51.62442524795597 -0.9959804382203288)"><path d="M0 0 C23.19 -0.45, 46.38 -0.89, 103.25 -1.99 M0 0 C26.49 -0.51, 52.98 -1.02, 103.25 -1.99" stroke="#228be6" stroke-width="1" fill="none"></path></g><g transform="translate(267.546341236991 91.81171748273135) rotate(0 51.62442524795597 -0.9959804382203288)"><path d="M75.26 8.81 C81.55 6.38, 87.83 3.96, 103.25 -1.99 M75.26 8.81 C82.44 6.04, 89.62 3.27, 103.25 -1.99" stroke="#228be6" stroke-width="1" fill="none"></path></g><g transform="translate(267.546341236991 91.81171748273135) rotate(0 51.62442524795597 -0.9959804382203288)"><path d="M74.87 -11.71 C81.24 -9.52, 87.62 -7.34, 103.25 -1.99 M74.87 -11.71 C82.15 -9.21, 89.43 -6.72, 103.25 -1.99" stroke="#228be6" stroke-width="1" fill="none"></path></g></g><mask></mask><g transform="translate(385.3075688614309 79.1261970035151) rotate(0 84.375 9.599999999999994)"><text x="0" y="0" font-family="Cascadia, Segoe UI Emoji" font-size="16px" fill="#228be6" text-anchor="start" style="white-space: pre;" direction="ltr" dominant-baseline="text-before-edge">Configuration file</text></g></svg>