<svg version="1.1" xmlns="http://www.w3.org/2000/svg" viewBox="0 0 819.3858327380482 337.8172167312259" width="1638.7716654760964" height="675.6344334624519">
  <!-- svg-source:excalidraw -->
  
  <defs>
    <style class="style-fonts">
      @font-face {
        font-family: "Virgil";
        src: url("https://excalidraw.com/Virgil.woff2");
      }
      @font-face {
        font-family: "Cascadia";
        src: url("https://excalidraw.com/Cascadia.woff2");
      }
    </style>
    
  </defs>
  <g stroke-linecap="round" transform="translate(189.81643812130403 60.42300901601298) rotate(0 211.84252485281786 27)"><path d="M0 0 C111.11 0, 222.22 0, 423.69 0 M0 0 C131.82 0, 263.64 0, 423.69 0 M423.69 0 C423.69 19.33, 423.69 38.65, 423.69 54 M423.69 0 C423.69 12.44, 423.69 24.88, 423.69 54 M423.69 54 C270.41 54, 117.13 54, 0 54 M423.69 54 C286.95 54, 150.21 54, 0 54 M0 54 C0 32.79, 0 11.58, 0 0 M0 54 C0 40.81, 0 27.63, 0 0" stroke="#1971c2" stroke-width="4" fill="none"></path></g><g transform="translate(327.8308379741219 65.82300901601299) rotate(0 73.828125 21.599999999999998)"><text x="73.828125" y="0" font-family="Cascadia, Segoe UI Emoji" font-size="36px" fill="#1971c2" text-anchor="middle" style="white-space: pre;" direction="ltr" dominant-baseline="text-before-edge">Project</text></g><g stroke-linecap="round" transform="translate(10 228.93349482924452) rotate(0 115.58252041583279 22)"><path d="M0 0 C53.48 0, 106.97 0, 231.17 0 M0 0 C48.11 0, 96.21 0, 231.17 0 M231.17 0 C231.17 13.52, 231.17 27.04, 231.17 44 M231.17 0 C231.17 15.89, 231.17 31.78, 231.17 44 M231.17 44 C157.54 44, 83.92 44, 0 44 M231.17 44 C176.71 44, 122.26 44, 0 44 M0 44 C0 26.94, 0 9.87, 0 0 M0 44 C0 28.14, 0 12.29, 0 0" stroke="#1971c2" stroke-width="2" fill="none"></path></g><g transform="translate(100.97314541583285 234.1334948292445) rotate(0 24.609375 16.800000000000004)"><text x="24.609375" y="0" font-family="Cascadia, Segoe UI Emoji" font-size="28px" fill="#1971c2" text-anchor="middle" style="white-space: pre;" direction="ltr" dominant-baseline="text-before-edge">foo</text></g><g stroke-linecap="round" transform="translate(293.9180173150917 227.27788344494456) rotate(0 115.58252041583279 26.6)"><path d="M0 0 C84.89 0, 169.79 0, 231.17 0 M0 0 C61.75 0, 123.49 0, 231.17 0 M231.17 0 C231.17 15.93, 231.17 31.87, 231.17 53.2 M231.17 0 C231.17 14.09, 231.17 28.18, 231.17 53.2 M231.17 53.2 C161.56 53.2, 91.95 53.2, 0 53.2 M231.17 53.2 C166.57 53.2, 101.98 53.2, 0 53.2 M0 53.2 C0 36.89, 0 20.59, 0 0 M0 53.2 C0 37.18, 0 21.16, 0 0" stroke="#1971c2" stroke-width="2" fill="none"></path></g><g transform="translate(377.8599127309245 232.27788344494456) rotate(0 31.640625 21.6)"><text x="31.640625" y="0" font-family="Cascadia, Segoe UI Emoji" font-size="36px" fill="#1971c2" text-anchor="middle" style="white-space: pre;" direction="ltr" dominant-baseline="text-before-edge">bar</text></g><g stroke-linecap="round" transform="translate(577.8321283801835 225.49727206064458) rotate(0 115.58252041583273 26.599999999999994)"><path d="M0 0 C86.21 0, 172.43 0, 231.17 0 M0 0 C85.95 0, 171.89 0, 231.17 0 M231.17 0 C231.17 18.66, 231.17 37.32, 231.17 53.2 M231.17 0 C231.17 18.33, 231.17 36.66, 231.17 53.2 M231.17 53.2 C175.9 53.2, 120.63 53.2, 0 53.2 M231.17 53.2 C173.91 53.2, 116.65 53.2, 0 53.2 M0 53.2 C0 33.91, 0 14.63, 0 0 M0 53.2 C0 40.28, 0 27.35, 0 0" stroke="#1971c2" stroke-width="2" fill="none"></path></g><g transform="translate(661.7740237960162 230.49727206064458) rotate(0 31.640625 21.599999999999994)"><text x="31.640625" y="0" font-family="Cascadia, Segoe UI Emoji" font-size="36px" fill="#1971c2" text-anchor="middle" style="white-space: pre;" direction="ltr" dominant-baseline="text-before-edge">qux</text></g><g stroke-linecap="round"><g transform="translate(404.70840206095784 115.42300901601298) rotate(0 -131.54154067018635 56.25524290661576)"><path d="M0 0 C-87.82 37.56, -175.65 75.12, -263.08 112.51 M0 0 C-91.6 39.17, -183.2 78.35, -263.08 112.51" stroke="#1971c2" stroke-width="1" fill="none"></path></g></g><mask></mask><g stroke-linecap="round"><g transform="translate(407.6927995875674 115.05911223835312) rotate(0 1.4922882579415955 56.05250043950309)"><path d="M0 0 C0.64 23.88, 1.27 47.77, 2.98 112.11 M0 0 C0.9 33.99, 1.81 67.97, 2.98 112.11" stroke="#1971c2" stroke-width="1" fill="none"></path></g></g><mask></mask><g stroke-linecap="round"><g transform="translate(409.47950773856394 114.39624687913215) rotate(0 148.16723177977008 55.411506272337675)"><path d="M0 0 C105.32 39.39, 210.64 78.77, 296.33 110.82 M0 0 C99.89 37.36, 199.77 74.71, 296.33 110.82" stroke="#1971c2" stroke-width="1" fill="none"></path></g></g><mask></mask><g stroke-linecap="round" transform="translate(290.77950125512587 10) rotate(0 116.80562477155274 17)"><path d="M0 0 C74.99 0, 149.97 0, 233.61 0 M0 0 C51.03 0, 102.07 0, 233.61 0 M233.61 0 C233.61 12.25, 233.61 24.49, 233.61 34 M233.61 0 C233.61 6.86, 233.61 13.72, 233.61 34 M233.61 34 C148.31 34, 63.02 34, 0 34 M233.61 34 C177.14 34, 120.66 34, 0 34 M0 34 C0 21.69, 0 9.39, 0 0 M0 34 C0 20.95, 0 7.9, 0 0" stroke="#1971c2" stroke-width="1" fill="none"></path></g><g transform="translate(318.5226260266786 17.400000000000006) rotate(0 89.06250000000006 9.599999999999994)"><text x="89.0625" y="0" font-family="Cascadia, Segoe UI Emoji" font-size="16px" fill="#1971c2" text-anchor="middle" style="white-space: pre;" direction="ltr" dominant-baseline="text-before-edge">settings.gradle.kts</text></g><g stroke-linecap="round"><g transform="translate(406.8852478809023 44.34786592348934) rotate(0 0.11272075905537804 7.779414774207254)"><path d="M0 0 C0.06 4.3, 0.12 8.6, 0.23 15.56 M0 0 C0.06 3.92, 0.11 7.84, 0.23 15.56" stroke="#1971c2" stroke-width="1" fill="none"></path></g></g><mask></mask><g stroke-linecap="round" transform="translate(57.171618111441944 293.8172167312259) rotate(0 92.5 17)"><path d="M0 0 C47.09 0, 94.18 0, 185 0 M0 0 C65.38 0, 130.75 0, 185 0 M185 0 C185 7.01, 185 14.01, 185 34 M185 0 C185 6.83, 185 13.66, 185 34 M185 34 C129.75 34, 74.5 34, 0 34 M185 34 C124.83 34, 64.66 34, 0 34 M0 34 C0 21.21, 0 8.41, 0 0 M0 34 C0 22.21, 0 10.41, 0 0" stroke="#1971c2" stroke-width="1" fill="none"></path></g><g transform="translate(74.67161811144194 301.2172167312259) rotate(0 75 9.599999999999994)"><text x="75" y="0" font-family="Cascadia, Segoe UI Emoji" font-size="16px" fill="#1971c2" text-anchor="middle" style="white-space: pre;" direction="ltr" dominant-baseline="text-before-edge">build.gradle.kts</text></g><g stroke-linecap="round" transform="translate(339.7861138542977 293.8172167312259) rotate(0 92.5 17)"><path d="M0 0 C39.62 0, 79.25 0, 185 0 M0 0 C67.48 0, 134.97 0, 185 0 M185 0 C185 9.63, 185 19.25, 185 34 M185 0 C185 8.98, 185 17.95, 185 34 M185 34 C140.94 34, 96.88 34, 0 34 M185 34 C125.94 34, 66.88 34, 0 34 M0 34 C0 25.76, 0 17.52, 0 0 M0 34 C0 21.73, 0 9.45, 0 0" stroke="#1971c2" stroke-width="1" fill="none"></path></g><g transform="translate(357.2861138542977 301.2172167312259) rotate(0 75 9.599999999999994)"><text x="75" y="0" font-family="Cascadia, Segoe UI Emoji" font-size="16px" fill="#1971c2" text-anchor="middle" style="white-space: pre;" direction="ltr" dominant-baseline="text-before-edge">build.gradle.kts</text></g><g stroke-linecap="round" transform="translate(624.3858327380482 293.8172167312259) rotate(0 92.5 17)"><path d="M0 0 C59.98 0, 119.95 0, 185 0 M0 0 C47.58 0, 95.17 0, 185 0 M185 0 C185 9.72, 185 19.45, 185 34 M185 0 C185 9.01, 185 18.02, 185 34 M185 34 C120.95 34, 56.9 34, 0 34 M185 34 C144.78 34, 104.57 34, 0 34 M0 34 C0 23.67, 0 13.34, 0 0 M0 34 C0 26.05, 0 18.1, 0 0" stroke="#1971c2" stroke-width="1" fill="none"></path></g><g transform="translate(641.8858327380482 301.2172167312259) rotate(0 75 9.599999999999994)"><text x="75" y="0" font-family="Cascadia, Segoe UI Emoji" font-size="16px" fill="#1971c2" text-anchor="middle" style="white-space: pre;" direction="ltr" dominant-baseline="text-before-edge">build.gradle.kts</text></g><g stroke-linecap="round"><g transform="translate(193.21110373571867 293.32278668589845) rotate(0 -0.003364798777795386 -5.67978033687794)"><path d="M0 0 C0 -2.85, 0 -5.7, -0.01 -11.36 M0 0 C0 -3.86, 0 -7.71, -0.01 -11.36" stroke="#1971c2" stroke-width="1" fill="none"></path></g></g><mask></mask><g stroke-linecap="round"><g transform="translate(466.79549011912025 293.2050187286765) rotate(0 -0.038695185944447985 -6.542851223376289)"><path d="M0 0 C-0.02 -3.84, -0.05 -7.69, -0.08 -13.09 M0 0 C-0.02 -3.08, -0.04 -6.16, -0.08 -13.09" stroke="#1971c2" stroke-width="1" fill="none"></path></g></g><mask></mask><g stroke-linecap="round"><g transform="translate(766.4005380906539 293.0468731861213) rotate(0 0.055519179833254384 -7.119914213764076)"><path d="M0 0 C0.03 -3.96, 0.06 -7.92, 0.11 -14.24 M0 0 C0.04 -4.73, 0.07 -9.46, 0.11 -14.24" stroke="#1971c2" stroke-width="1" fill="none"></path></g></g><mask></mask></svg>